<svg width="256" height="256" viewBox="0 0 256 256" role="img" aria-labelledby="title desc" xmlns="http://www.w3.org/2000/svg">
  <title id="title">Pocket pet egg</title>
  <desc id="desc">A simple egg-shaped virtual pet with eyes and rosy cheeks.</desc>
  <defs>
    <linearGradient id="shell" x1="64" x2="192" y1="28" y2="228" gradientUnits="userSpaceOnUse">
      <stop stop-color="#fff7da"/>
      <stop offset=".52" stop-color="#f3d984"/>
      <stop offset="1" stop-color="#e8b956"/>
    </linearGradient>
  </defs>
  <path fill="url(#shell)" stroke="#473a22" stroke-width="8" d="M128 24c41 0 84 68 84 126 0 48-34 82-84 82s-84-34-84-82C44 92 87 24 128 24Z"/>
  <path fill="#fffbe8" d="M77 139c0-35 24-83 51-91 27 8 51 56 51 91 0 34-20 56-51 56s-51-22-51-56Z" opacity=".45"/>
  <circle cx="97" cy="124" r="10" fill="#2f2b26"/>
  <circle cx="159" cy="124" r="10" fill="#2f2b26"/>
  <path fill="none" stroke="#2f2b26" stroke-linecap="round" stroke-width="6" d="M112 150c9 9 23 9 32 0"/>
  <circle cx="78" cy="146" r="12" fill="#e97972" opacity=".65"/>
  <circle cx="178" cy="146" r="12" fill="#e97972" opacity=".65"/>
</svg>

