<svg width="256" height="256" viewBox="0 0 256 256" role="img" aria-labelledby="title desc" xmlns="http://www.w3.org/2000/svg">
  <title id="title">adult alien calm</title>
  <desc id="desc">A cute alien virtual pet in the adult growth stage with a okay mood.</desc>
  <defs>
    <linearGradient id="skin" x1="72" x2="188" y1="54" y2="224" gradientUnits="userSpaceOnUse">
      <stop stop-color="#d9fff2"/>
      <stop offset=".52" stop-color="#8fd9c8"/>
      <stop offset="1" stop-color="#3e9f94"/>
    </linearGradient>
    <linearGradient id="warm" x1="70" x2="182" y1="70" y2="224" gradientUnits="userSpaceOnUse">
      <stop stop-color="#fff7da"/>
      <stop offset="1" stop-color="#e8b956"/>
    </linearGradient>
  </defs>
  <style>
    .body{fill:url(#skin);stroke:#473a22;stroke-width:8;stroke-linejoin:round}
    .belly,.shine{fill:#f7fff1;opacity:.52}
    .panel,.collar,.shell{fill:url(#warm);stroke:#473a22;stroke-width:6;stroke-linejoin:round}
    .antenna,.arm,.foot,.boot{fill:none;stroke:#473a22;stroke-width:8;stroke-linecap:round;stroke-linejoin:round}
    .antenna-dot,.cheek{fill:#e97972;stroke:#473a22;stroke-width:6}
    .eye,.mouth{fill:none;stroke:#2f2b26;stroke-width:7;stroke-linecap:round;stroke-linejoin:round}
    .eye-fill{fill:#2f2b26}
    .eye-glint{fill:#fffdf8}
    .open-mouth{fill:#2f2b26}
    .orbit{fill:none;stroke:#d98247;stroke-width:7;opacity:.55}
    .spark,.snack{fill:#f3d984;stroke:#473a22;stroke-width:5;stroke-linejoin:round}
    .snack-mark,.dirt-line,.crack,.crack-light,.sleep-tilt,.belly-rumble{fill:none;stroke:#473a22;stroke-width:5;stroke-linecap:round;stroke-linejoin:round}
    .crack-light{opacity:.35}
    .dirt{fill:#6f675c;opacity:.75}
    .sleep{font:700 24px system-ui,sans-serif;fill:#6f675c}
    .sleep-large{font-size:34px}
  </style>
  <g class="pet" transform="translate(0 0) scale(1.04) translate(-4.923076923076934 -5.307692307692321)">
    
    <g transform="translate(-6.400000000000006 -7.099999999999994) scale(1.05)" opacity="1">
      <path class="arm" d="M82 139c-19 5-27 16-29 30"/>
      <path class="arm" d="M174 139c19 5 27 16 29 30"/>
    </g>
  
    
      <path class="antenna" d="M98 58c-8-30 15-50 45-40"/>
      <path class="antenna" d="M154 58c12-29 42-33 59-11"/>
      <circle class="antenna-dot" cx="143" cy="20" r="10"/>
      <circle class="antenna-dot" cx="214" cy="48" r="9"/>
    
    
      <ellipse class="orbit" cx="128" cy="145" rx="92" ry="30"/>
      <path class="body" d="M128 48c43 0 72 36 72 86 0 57-27 92-72 92s-72-35-72-92c0-50 29-86 72-86Z"/>
      <path class="belly" d="M84 142c18 51 70 51 88 0 8 53-9 80-44 80s-52-27-44-80Z"/>
      <path class="collar" d="M83 106c27 22 63 22 90 0l-11 25H94Z"/>
    
    
    
      <circle class="eye-fill" cx="104" cy="123" r="10"/>
      <circle class="eye-fill" cx="152" cy="123" r="10"/>
    
    <path class="mouth" d="M113 148c8 8 22 8 30 0"/>
    <circle class="cheek" cx="84" cy="147" r="10" opacity=".65"/>
    <circle class="cheek" cx="172" cy="147" r="10" opacity=".65"/>
    
      <path class="boot" d="M78 218c19 17 45 17 61 0v14H80Z"/>
      <path class="boot" d="M117 218c19 17 45 17 61 0v14h-59Z"/>
    
  </g>
  
</svg>
