<svg width="256" height="256" viewBox="0 0 256 256" role="img" aria-labelledby="title desc" xmlns="http://www.w3.org/2000/svg">
  <title id="title">egg pod calm</title>
  <desc id="desc">A cute alien virtual pet in the egg growth stage with a okay mood.</desc>
  <defs>
    <linearGradient id="skin" x1="72" x2="188" y1="54" y2="224" gradientUnits="userSpaceOnUse">
      <stop stop-color="#d9fff2"/>
      <stop offset=".52" stop-color="#8fd9c8"/>
      <stop offset="1" stop-color="#3e9f94"/>
    </linearGradient>
    <linearGradient id="warm" x1="70" x2="182" y1="70" y2="224" gradientUnits="userSpaceOnUse">
      <stop stop-color="#fff7da"/>
      <stop offset="1" stop-color="#e8b956"/>
    </linearGradient>
  </defs>
  <style>
    .body{fill:url(#skin);stroke:#473a22;stroke-width:8;stroke-linejoin:round}
    .belly,.shine{fill:#f7fff1;opacity:.52}
    .panel,.collar,.shell{fill:url(#warm);stroke:#473a22;stroke-width:6;stroke-linejoin:round}
    .antenna,.arm,.foot,.boot{fill:none;stroke:#473a22;stroke-width:8;stroke-linecap:round;stroke-linejoin:round}
    .antenna-dot,.cheek{fill:#e97972;stroke:#473a22;stroke-width:6}
    .eye,.mouth{fill:none;stroke:#2f2b26;stroke-width:7;stroke-linecap:round;stroke-linejoin:round}
    .eye-fill{fill:#2f2b26}
    .eye-glint{fill:#fffdf8}
    .open-mouth{fill:#2f2b26}
    .orbit{fill:none;stroke:#d98247;stroke-width:7;opacity:.55}
    .spark,.snack{fill:#f3d984;stroke:#473a22;stroke-width:5;stroke-linejoin:round}
    .snack-mark,.dirt-line,.crack,.crack-light,.sleep-tilt,.belly-rumble{fill:none;stroke:#473a22;stroke-width:5;stroke-linecap:round;stroke-linejoin:round}
    .crack-light{opacity:.35}
    .dirt{fill:#6f675c;opacity:.75}
    .sleep{font:700 24px system-ui,sans-serif;fill:#6f675c}
    .sleep-large{font-size:34px}
  </style>
  <g class="pet" transform="translate(0 0) scale(0.93) translate(9.634408602150529 10.387096774193537)">
    
    <g transform="translate(53.760000000000005 59.64) scale(0.58)" opacity="0.55">
      <path class="arm" d="M82 139c-19 5-27 16-29 30"/>
      <path class="arm" d="M174 139c19 5 27 16 29 30"/>
    </g>
  
    
      <path class="antenna" d="M128 36v-18"/>
      <circle class="antenna-dot" cx="128" cy="16" r="9"/>
    
    
      <path class="body" d="M128 34c39 0 78 61 78 114 0 47-31 76-78 76s-78-29-78-76c0-53 39-114 78-114Z"/>
      <path class="shine" d="M79 137c0-33 22-78 49-87 26 9 49 54 49 87 0 31-20 51-49 51s-49-20-49-51Z"/>
      <path class="panel" d="M81 177c20 16 73 16 94 0"/>
    
    <path class="crack-light" d="M105 91l14 13-7 10"/>
    
      <circle class="eye-fill" cx="104" cy="123" r="10"/>
      <circle class="eye-fill" cx="152" cy="123" r="10"/>
    
    <path class="mouth" d="M113 148c8 8 22 8 30 0"/>
    <circle class="cheek" cx="84" cy="147" r="10" opacity=".65"/>
    <circle class="cheek" cx="172" cy="147" r="10" opacity=".65"/>
    
  </g>
  
</svg>
