<svg width="256" height="256" viewBox="0 0 256 256" role="img" aria-labelledby="title desc" xmlns="http://www.w3.org/2000/svg">
  <title id="title">junior alien messy</title>
  <desc id="desc">A cute alien virtual pet in the teen growth stage with a messy mood.</desc>
  <defs>
    <linearGradient id="skin" x1="72" x2="188" y1="54" y2="224" gradientUnits="userSpaceOnUse">
      <stop stop-color="#d9fff2"/>
      <stop offset=".52" stop-color="#8fd9c8"/>
      <stop offset="1" stop-color="#3e9f94"/>
    </linearGradient>
    <linearGradient id="warm" x1="70" x2="182" y1="70" y2="224" gradientUnits="userSpaceOnUse">
      <stop stop-color="#fff7da"/>
      <stop offset="1" stop-color="#e8b956"/>
    </linearGradient>
  </defs>
  <style>
    .body{fill:url(#skin);stroke:#473a22;stroke-width:8;stroke-linejoin:round}
    .belly,.shine{fill:#f7fff1;opacity:.52}
    .panel,.collar,.shell{fill:url(#warm);stroke:#473a22;stroke-width:6;stroke-linejoin:round}
    .antenna,.arm,.foot,.boot{fill:none;stroke:#473a22;stroke-width:8;stroke-linecap:round;stroke-linejoin:round}
    .antenna-dot,.cheek{fill:#e97972;stroke:#473a22;stroke-width:6}
    .eye,.mouth{fill:none;stroke:#2f2b26;stroke-width:7;stroke-linecap:round;stroke-linejoin:round}
    .eye-fill{fill:#2f2b26}
    .eye-glint{fill:#fffdf8}
    .open-mouth{fill:#2f2b26}
    .orbit{fill:none;stroke:#d98247;stroke-width:7;opacity:.55}
    .spark,.snack{fill:#f3d984;stroke:#473a22;stroke-width:5;stroke-linejoin:round}
    .snack-mark,.dirt-line,.crack,.crack-light,.sleep-tilt,.belly-rumble{fill:none;stroke:#473a22;stroke-width:5;stroke-linecap:round;stroke-linejoin:round}
    .crack-light{opacity:.35}
    .dirt{fill:#6f675c;opacity:.75}
    .sleep{font:700 24px system-ui,sans-serif;fill:#6f675c}
    .sleep-large{font-size:34px}
  </style>
  <g class="pet" transform="translate(0 5) rotate(7 128 143) scale(1) translate(0 0)">
    
    <g transform="translate(0 0) scale(1)" opacity="1">
      <path class="arm" d="M84 137c-23 1-35 13-35 30"/>
      <path class="arm" d="M174 137c20-7 34 1 42 18"/>
    </g>
  
    
      <path class="antenna" d="M102 62c-5-26 12-42 37-35"/>
      <path class="antenna" d="M151 62c8-25 30-31 48-16"/>
      <circle class="antenna-dot" cx="139" cy="29" r="9"/>
      <circle class="antenna-dot" cx="199" cy="47" r="8"/>
    
    
      <path class="body" d="M128 54c39 0 64 35 64 82 0 55-24 86-64 86s-64-31-64-86c0-47 25-82 64-82Z"/>
      <path class="belly" d="M91 142c13 41 61 47 74 0 9 48-7 74-37 74s-46-26-37-74Z"/>
      <path class="collar" d="M86 103c20 18 64 18 84 0l-12 24H98Z"/>
    
    
    
      <circle class="eye-fill" cx="103" cy="124" r="9"/>
      <path class="eye" d="M138 120l21 12M159 120l-21 12"/>
    
    <path class="mouth" d="M113 155c8-9 22-9 30 0"/>
    <circle class="cheek" cx="84" cy="147" r="10" opacity=".65"/>
    <circle class="cheek" cx="172" cy="147" r="10" opacity=".65"/>
    
      <path class="boot" d="M83 217c17 15 40 15 54 0v14H84Z"/>
      <path class="boot" d="M119 217c17 15 40 15 54 0v14h-53Z"/>
    
  </g>
  
      <circle class="dirt" cx="78" cy="97" r="7"/>
      <circle class="dirt" cx="176" cy="165" r="6"/>
      <path class="dirt-line" d="M69 132l22 10M185 98l15 17"/>
    
</svg>
